<?xml version="1.0" encoding="iso-8859-1"?>
<!-- Uploaded to: SVG Repo, www.svgrepo.com, Generator: SVG Repo Mixer Tools -->
<svg height="800px" width="800px" version="1.1" id="Layer_1" xmlns="http://www.w3.org/2000/svg" xmlns:xlink="http://www.w3.org/1999/xlink" 
	 viewBox="0 0 512 512" xml:space="preserve">
<g transform="translate(1)">
	<path style="fill:#FFE100;" d="M493.29,210.286C477.747,1.829,255.576,9.143,255.576,9.143S32.49,1.829,17.862,210.286
		c0,0-3.657,160.914,82.286,237.714c0,0,19.2,27.429,91.429,27.429h34.743c-9.143-5.486-17.371-12.8-26.514-18.286
		c-17.371-11.886-35.657-23.771-51.2-38.4c-44.8-41.143-48.457-104.229-48.457-161.829c0,0,138.971-8.229,192-138.057
		c0,0,40.229,18.286,74.057,44.8c28.343,21.943,44.8,56.686,44.8,93.257c0,57.6-4.571,120.686-47.543,161.829
		c-16.457,14.629-34.743,26.514-52.114,38.4c-9.143,6.4-17.371,12.8-26.514,18.286h34.743c72.229,0,91.429-27.429,91.429-27.429
		C496.947,371.2,493.29,210.286,493.29,210.286"/>
	<path style="fill:#FFA800;" d="M492.376,210.286C476.833,1.829,254.662,9.143,254.662,9.143s-5.486,0-13.714,0
		c49.371,2.743,211.2,23.771,224.914,201.143c0,0,3.657,160.914-82.286,237.714c0,0-19.2,27.429-91.429,27.429h27.429
		c72.229,0,91.429-27.429,91.429-27.429C496.947,371.2,492.376,210.286,492.376,210.286"/>
	<path style="fill:#FFFFFF;" d="M17.862,210.286C32.49,1.829,255.576,9.143,255.576,9.143s5.486,0,13.714,0
		c-49.371,2.743-211.2,23.771-224,201.143c0,0-3.657,160.914,82.286,237.714c0,0,19.2,27.429,91.429,27.429h-27.429
		c-72.229,0-91.429-27.429-91.429-27.429C13.29,371.2,17.862,210.286,17.862,210.286"/>
	<path style="fill:#FDCC00;" d="M365.29,163.657c-33.829-26.514-73.143-44.8-73.143-44.8c-53.029,130.743-192,138.057-192,138.057
		c0,57.6,4.571,120.686,47.543,161.829c15.543,14.629,33.829,26.514,51.2,38.4s32.914,27.429,55.771,27.429
		c22.857,0,38.4-15.543,55.771-27.429c17.371-11.886,35.657-23.771,51.2-38.4c42.971-41.143,47.543-104.229,47.543-161.829
		C411.004,220.343,393.633,186.514,365.29,163.657"/>
	<g>
		<path style="fill:#FFE100;" d="M182.433,512c-5.486,0-9.143-3.657-9.143-9.143v-27.429c0-5.486,3.657-9.143,9.143-9.143
			s9.143,3.657,9.143,9.143v27.429C191.576,508.343,187.004,512,182.433,512z"/>
		<path style="fill:#FFE100;" d="M347.004,512c-5.486,0-9.143-3.657-9.143-9.143v-27.429c0-5.486,3.657-9.143,9.143-9.143
			c5.486,0,9.143,3.657,9.143,9.143v27.429C356.147,508.343,351.576,512,347.004,512z"/>
	</g>
	<path d="M173.29,512c-5.486,0-9.143-3.657-9.143-9.143v-27.429c0-5.486,3.657-9.143,9.143-9.143s9.143,3.657,9.143,9.143v27.429
		C182.433,508.343,177.862,512,173.29,512z"/>
	<path d="M337.862,512c-5.486,0-9.143-3.657-9.143-9.143v-27.429c0-5.486,3.657-9.143,9.143-9.143c5.486,0,9.143,3.657,9.143,9.143
		v27.429C347.004,508.343,342.433,512,337.862,512z"/>
	<path d="M255.576,493.714c-21.029,0-36.571-10.971-51.2-21.943c-3.657-2.743-6.4-4.571-10.057-7.314l-9.143-6.4
		c-14.629-10.057-30.171-20.114-43.886-32.914c-44.8-42.057-50.286-106.057-50.286-168.229c0-4.571,3.657-9.143,8.229-9.143
		c0.914,0,133.486-9.143,183.771-132.571c0.914-2.743,2.743-4.571,5.486-5.486c2.743-0.914,4.571-0.914,7.314,0
		c1.829,0.914,41.143,19.2,75.886,45.714C401.862,179.2,420.147,216.686,420.147,256c0,62.171-6.4,126.171-50.286,168.229
		c-13.714,12.8-29.257,22.857-43.886,32.914l-9.143,6.4c-3.657,2.743-6.4,4.571-10.057,7.314
		C291.233,482.743,276.604,493.714,255.576,493.714z M109.29,265.143c0,52.114,5.486,109.714,44.8,147.2
		c12.8,11.886,26.514,21.029,41.143,31.086l9.143,6.4c3.657,2.743,7.314,5.486,10.971,8.229c12.8,9.143,24.686,18.286,40.229,18.286
		c15.543,0,27.429-9.143,40.229-18.286c3.657-2.743,7.314-5.486,10.971-7.314l9.143-6.4c14.629-10.057,29.257-19.2,41.143-31.086
		c41.143-39.314,44.8-100.571,44.8-155.429c0-33.829-15.543-65.829-42.057-85.943c-23.771-18.286-50.286-32.914-63.086-39.314
		C247.347,238.629,140.376,260.571,109.29,265.143z"/>
	<path d="M319.576,484.571h-34.743c-3.657,0-7.314-2.743-9.143-6.4c-0.914-3.657,0.914-8.229,3.657-10.057
		c5.486-2.743,10.057-6.4,15.543-10.971c3.657-2.743,7.314-5.486,10.971-7.314l9.143-6.4c14.629-9.143,29.257-19.2,41.143-31.086
		c41.143-39.314,44.8-100.571,44.8-155.429c0-33.829-15.543-65.829-42.057-85.943c-23.771-18.286-50.286-32.914-63.086-39.314
		C247.347,238.629,140.376,260.571,109.29,265.143c0,52.114,5.486,109.714,44.8,147.2c12.8,11.886,27.429,21.943,41.143,31.086
		l9.143,6.4c3.657,2.743,7.314,5.486,10.971,7.314c4.571,3.657,9.143,7.314,14.629,10.057c3.657,1.829,5.486,4.571,5.486,8.229
		c0,5.486-3.657,9.143-9.143,9.143l0,0h-34.743c-68.571,0-93.257-24.686-97.829-30.171C5.062,374.857,7.804,216.686,8.719,210.286
		C23.347,5.486,229.062,0,251.919,0c1.829,0,2.743,0,2.743,0s0.914,0,2.743,0c23.771,0,228.571,5.486,244.114,209.371
		c0,7.314,2.743,165.486-85.029,245.029C412.833,459.886,388.147,484.571,319.576,484.571z M314.09,466.286h5.486
		c64.914,0,84.114-23.771,84.114-23.771s0.914-0.914,0.914-1.829c82.286-73.143,79.543-229.486,79.543-230.4
		c-14.629-186.514-204.8-192-225.829-192h-2.743h-2.743c-21.943,0-212.114,5.486-226.743,192.914
		c0,0.914-2.743,157.257,79.543,230.4c0.914,0,0.914,0.914,0.914,1.829c0,0,19.2,23.771,84.114,23.771h5.486
		c-0.914-0.914-1.829-0.914-2.743-1.829l-9.143-5.486c-14.629-10.057-30.171-20.114-43.886-32.914
		C96.49,383.086,91.004,319.086,91.004,256.914c0-4.571,3.657-9.143,8.229-9.143c0.914,0,133.486-9.143,183.771-132.571
		c0.914-2.743,2.743-4.571,5.486-5.486c2.743-0.914,4.571-0.914,7.314,0c1.829,0.914,41.143,19.2,75.886,45.714
		C402.776,179.2,420.147,215.771,420.147,256c0,62.171-6.4,126.171-50.286,168.229c-13.714,12.8-29.257,22.857-43.886,32.914
		l-9.143,5.486C315.919,465.371,315.004,465.371,314.09,466.286z"/>
</g>
</svg>