<svg xmlns="http://www.w3.org/2000/svg" xmlns:xlink="http://www.w3.org/1999/xlink" width="500" zoomAndPan="magnify" viewBox="0 0 375 374.999991" height="500" preserveAspectRatio="xMidYMid meet" version="1.0"><defs><g/></defs><g fill="#bba14f" fill-opacity="1"><g transform="translate(60.298792, 211.124986)"><g><path d="M 17.578125 -47.109375 L 17.578125 -44.609375 L 16.71875 -44.609375 L 16.71875 -47.1875 C 16.71875 -49.476562 16.144531 -51.300781 15 -52.65625 C 13.851562 -54.007812 12.316406 -54.6875 10.390625 -54.6875 C 9.503906 -54.6875 8.800781 -54.0625 8.28125 -52.8125 C 7.757812 -51.5625 7.5 -49.894531 7.5 -47.8125 L 7.5 -18.046875 C 7.5 -13.878906 7.523438 -10.15625 7.578125 -6.875 C 7.578125 -4.789062 7.835938 -3.125 8.359375 -1.875 C 8.828125 -0.625 9.503906 0 10.390625 0 C 12.316406 0 13.851562 -0.675781 15 -2.03125 C 16.144531 -3.382812 16.71875 -5.207031 16.71875 -7.5 L 16.71875 -10 L 17.578125 -10 L 17.578125 -7.578125 C 17.578125 -5.078125 16.925781 -3.070312 15.625 -1.5625 C 14.320312 0 12.578125 0.78125 10.390625 0.78125 C 8.203125 0.78125 6.457031 0 5.15625 -1.5625 C 3.800781 -3.070312 3.125 -5.078125 3.125 -7.578125 L 3.125 -47.109375 C 3.125 -49.609375 3.800781 -51.640625 5.15625 -53.203125 C 6.457031 -54.710938 8.203125 -55.46875 10.390625 -55.46875 C 12.578125 -55.46875 14.320312 -54.710938 15.625 -53.203125 C 16.925781 -51.640625 17.578125 -49.609375 17.578125 -47.109375 L 17.1875 -47.1875 L 17.1875 -47.109375 Z M 17.578125 -47.109375 "/></g></g></g><g fill="#bba14f" fill-opacity="1"><g transform="translate(85.837563, 211.124986)"><g><path d="M 10.625 -29.140625 C 11.664062 -29.140625 12.523438 -29.660156 13.203125 -30.703125 C 13.828125 -31.691406 14.140625 -33.019531 14.140625 -34.6875 L 14.140625 -46.40625 C 14.140625 -48.695312 13.828125 -50.519531 13.203125 -51.875 C 12.523438 -53.226562 11.664062 -53.90625 10.625 -53.90625 L 7.578125 -53.90625 L 7.578125 -29.140625 Z M 13.28125 -28.984375 C 15.101562 -28.617188 16.535156 -27.785156 17.578125 -26.484375 C 18.617188 -25.128906 19.140625 -23.460938 19.140625 -21.484375 L 19.140625 -8.203125 C 19.140625 -5.703125 18.460938 -3.722656 17.109375 -2.265625 C 15.703125 -0.753906 13.828125 0 11.484375 0 L 3.125 0 L 3.125 -54.6875 L 10.625 -54.6875 C 13.019531 -54.6875 14.945312 -53.957031 16.40625 -52.5 C 17.863281 -50.988281 18.59375 -48.984375 18.59375 -46.484375 L 18.59375 -35.859375 C 18.59375 -34.140625 18.125 -32.679688 17.1875 -31.484375 C 16.195312 -30.234375 14.867188 -29.398438 13.203125 -28.984375 Z M 11.5625 -0.78125 C 12.550781 -0.78125 13.332031 -1.457031 13.90625 -2.8125 C 14.476562 -4.164062 14.765625 -5.960938 14.765625 -8.203125 L 14.765625 -21.40625 C 14.765625 -23.488281 14.476562 -25.179688 13.90625 -26.484375 C 13.332031 -27.734375 12.550781 -28.359375 11.5625 -28.359375 L 7.65625 -28.359375 L 7.65625 -0.78125 Z M 11.5625 -0.78125 "/></g></g></g><g fill="#bba14f" fill-opacity="1"><g transform="translate(114.501029, 211.124986)"><g><path d="M 19.84375 -54.609375 C 19.789062 -54.554688 19.765625 -54.503906 19.765625 -54.453125 C 19.765625 -54.398438 19.738281 -54.347656 19.6875 -54.296875 L 11.875 -31.25 L 19.84375 -0.390625 L 19.84375 -0.3125 L 19.921875 0 L 15.234375 0 C 15.179688 0 15.15625 -0.0234375 15.15625 -0.078125 L 15.15625 -0.3125 L 9.296875 -23.671875 L 7.65625 -18.828125 L 7.65625 0 L 3.203125 0 L 3.203125 -54.6875 L 7.65625 -54.6875 L 7.65625 -20.9375 L 18.828125 -54.296875 L 18.828125 -54.453125 C 18.828125 -54.503906 18.851562 -54.554688 18.90625 -54.609375 C 18.90625 -54.609375 18.90625 -54.632812 18.90625 -54.6875 Z M 19.84375 -54.609375 "/></g></g></g><g fill="#bba14f" fill-opacity="1"><g transform="translate(141.133443, 211.124986)"><g/></g></g><g fill="#bba14f" fill-opacity="1"><g transform="translate(156.751308, 211.124986)"><g><path d="M 10.625 -29.140625 C 11.664062 -29.140625 12.523438 -29.660156 13.203125 -30.703125 C 13.828125 -31.691406 14.140625 -33.019531 14.140625 -34.6875 L 14.140625 -46.40625 C 14.140625 -48.695312 13.828125 -50.519531 13.203125 -51.875 C 12.523438 -53.226562 11.664062 -53.90625 10.625 -53.90625 L 7.578125 -53.90625 L 7.578125 -29.140625 Z M 13.28125 -28.984375 C 15.101562 -28.617188 16.535156 -27.785156 17.578125 -26.484375 C 18.617188 -25.128906 19.140625 -23.460938 19.140625 -21.484375 L 19.140625 -8.203125 C 19.140625 -5.703125 18.460938 -3.722656 17.109375 -2.265625 C 15.703125 -0.753906 13.828125 0 11.484375 0 L 3.125 0 L 3.125 -54.6875 L 10.625 -54.6875 C 13.019531 -54.6875 14.945312 -53.957031 16.40625 -52.5 C 17.863281 -50.988281 18.59375 -48.984375 18.59375 -46.484375 L 18.59375 -35.859375 C 18.59375 -34.140625 18.125 -32.679688 17.1875 -31.484375 C 16.195312 -30.234375 14.867188 -29.398438 13.203125 -28.984375 Z M 11.5625 -0.78125 C 12.550781 -0.78125 13.332031 -1.457031 13.90625 -2.8125 C 14.476562 -4.164062 14.765625 -5.960938 14.765625 -8.203125 L 14.765625 -21.40625 C 14.765625 -23.488281 14.476562 -25.179688 13.90625 -26.484375 C 13.332031 -27.734375 12.550781 -28.359375 11.5625 -28.359375 L 7.65625 -28.359375 L 7.65625 -0.78125 Z M 11.5625 -0.78125 "/></g></g></g><g fill="#bba14f" fill-opacity="1"><g transform="translate(185.414774, 211.124986)"><g><path d="M 16.015625 -0.78125 L 16.015625 0 L 3.125 0 L 3.125 -54.6875 L 15.625 -54.6875 L 15.625 -53.90625 L 7.578125 -53.90625 L 7.578125 -28.90625 L 13.59375 -28.90625 L 13.59375 -28.125 L 7.578125 -28.125 L 7.578125 -0.78125 Z M 16.015625 -0.78125 "/></g></g></g><g fill="#bba14f" fill-opacity="1"><g transform="translate(209.396438, 211.124986)"><g/></g></g><g fill="#bba14f" fill-opacity="1"><g transform="translate(225.014304, 211.124986)"><g/></g></g><g fill="#bba14f" fill-opacity="1"><g transform="translate(240.638624, 211.124986)"><g><path d="M 17.421875 -54.6875 L 17.421875 -7.421875 C 17.421875 -4.921875 16.769531 -2.941406 15.46875 -1.484375 C 14.164062 0.0234375 12.421875 0.78125 10.234375 0.78125 C 8.046875 0.78125 6.300781 0 5 -1.5625 C 3.695312 -3.070312 3.046875 -5.101562 3.046875 -7.65625 L 3.046875 -54.6875 L 7.5 -54.6875 L 7.5 -6.796875 C 7.5 -4.765625 7.757812 -3.125 8.28125 -1.875 C 8.75 -0.625 9.398438 0 10.234375 0 C 12.160156 0 13.695312 -0.675781 14.84375 -2.03125 C 15.988281 -3.382812 16.5625 -5.15625 16.5625 -7.34375 L 16.5625 -54.6875 Z M 17.421875 -54.6875 "/></g></g></g><g fill="#bba14f" fill-opacity="1"><g transform="translate(267.583507, 211.124986)"><g><path d="M 17.96875 -54.6875 L 17.96875 -53.90625 L 11.40625 -53.90625 L 11.40625 0 L 6.953125 0 L 6.953125 -53.90625 L 0.390625 -53.90625 L 0.390625 -54.6875 Z M 17.96875 -54.6875 "/></g></g></g><g fill="#bba14f" fill-opacity="1"><g transform="translate(292.341105, 211.124986)"><g><path d="M 19.609375 -54.6875 C 19.609375 -54.476562 19.582031 -54.347656 19.53125 -54.296875 L 13.90625 -23.125 L 13.90625 0 L 9.453125 0 L 9.453125 -23.125 L 2.65625 -54.296875 L 2.578125 -54.6875 L 7.265625 -54.6875 L 7.265625 -54.453125 C 7.265625 -54.398438 7.289062 -54.347656 7.34375 -54.296875 L 12.8125 -23.125 L 13.28125 -23.125 L 18.59375 -54.296875 L 18.59375 -54.453125 C 18.59375 -54.503906 18.617188 -54.554688 18.671875 -54.609375 C 18.671875 -54.609375 18.671875 -54.632812 18.671875 -54.6875 Z M 19.609375 -54.6875 "/></g></g></g><g fill="#bba14f" fill-opacity="1"><g transform="translate(151.208494, 233.375025)"><g><path d="M 3.4375 -12.71875 C 4.40625 -12.71875 5.117188 -12.429688 5.578125 -11.859375 C 6.046875 -11.285156 6.28125 -10.519531 6.28125 -9.5625 L 6.28125 -8.484375 L 4.953125 -8.484375 L 4.953125 -9.625 C 4.953125 -10.207031 4.832031 -10.65625 4.59375 -10.96875 C 4.363281 -11.289062 3.988281 -11.453125 3.46875 -11.453125 C 2.96875 -11.453125 2.597656 -11.289062 2.359375 -10.96875 C 2.117188 -10.65625 2 -10.207031 2 -9.625 L 2 -2.96875 C 2 -2.394531 2.117188 -1.945312 2.359375 -1.625 C 2.597656 -1.3125 2.96875 -1.15625 3.46875 -1.15625 C 3.988281 -1.15625 4.363281 -1.3125 4.59375 -1.625 C 4.832031 -1.945312 4.953125 -2.394531 4.953125 -2.96875 L 4.953125 -5.484375 L 3.65625 -5.484375 L 3.65625 -6.75 L 6.28125 -6.75 L 6.28125 -3.046875 C 6.28125 -2.085938 6.046875 -1.316406 5.578125 -0.734375 C 5.117188 -0.160156 4.40625 0.125 3.4375 0.125 C 2.476562 0.125 1.765625 -0.160156 1.296875 -0.734375 C 0.835938 -1.316406 0.609375 -2.085938 0.609375 -3.046875 L 0.609375 -9.5625 C 0.609375 -10.039062 0.664062 -10.472656 0.78125 -10.859375 C 0.894531 -11.253906 1.066406 -11.585938 1.296875 -11.859375 C 1.535156 -12.140625 1.832031 -12.351562 2.1875 -12.5 C 2.539062 -12.644531 2.957031 -12.71875 3.4375 -12.71875 Z M 3.4375 -12.71875 "/></g></g></g><g fill="#bba14f" fill-opacity="1"><g transform="translate(167.048467, 233.375025)"><g><path d="M 2.125 -5.671875 L 2.125 0 L 0.71875 0 L 0.71875 -12.59375 L 2.125 -12.59375 L 2.125 -6.9375 L 5.21875 -6.9375 L 5.21875 -12.59375 L 6.625 -12.59375 L 6.625 0 L 5.21875 0 L 5.21875 -5.671875 Z M 2.125 -5.671875 "/></g></g></g><g fill="#bba14f" fill-opacity="1"><g transform="translate(183.338444, 233.375025)"><g><path d="M 2.140625 -2.53125 L 1.65625 0 L 0.359375 0 L 2.765625 -12.59375 L 4.8125 -12.59375 L 7.21875 0 L 5.8125 0 L 5.328125 -2.53125 Z M 2.328125 -3.75 L 5.125 -3.75 L 3.703125 -11.015625 Z M 2.328125 -3.75 "/></g></g></g><g fill="#bba14f" fill-opacity="1"><g transform="translate(199.88042, 233.375025)"><g><path d="M 1.96875 0 L 0.703125 0 L 0.703125 -12.59375 L 2.484375 -12.59375 L 5.40625 -3.484375 L 5.40625 -12.59375 L 6.640625 -12.59375 L 6.640625 0 L 5.1875 0 L 1.96875 -10.1875 Z M 1.96875 0 "/></g></g></g><g fill="#bba14f" fill-opacity="1"><g transform="translate(216.188387, 233.375025)"><g><path d="M 2.140625 -2.53125 L 1.65625 0 L 0.359375 0 L 2.765625 -12.59375 L 4.8125 -12.59375 L 7.21875 0 L 5.8125 0 L 5.328125 -2.53125 Z M 2.328125 -3.75 L 5.125 -3.75 L 3.703125 -11.015625 Z M 2.328125 -3.75 "/></g></g></g><g fill="#bba14f" fill-opacity="1"><g transform="translate(231.232108, 155.693661)"><g><path d="M -16.8125 55.578125 L -16.8125 55.734375 C -16.8125 55.785156 -16.835938 55.835938 -16.890625 55.890625 C -16.890625 55.890625 -16.890625 55.914062 -16.890625 55.96875 L -17.78125 55.96875 L -17.78125 55.578125 L -17.703125 55.578125 L -12.015625 1.359375 L -12.171875 -0.078125 L -8.328125 -0.078125 L -1.28125 55.65625 C -1.226562 55.707031 -1.203125 55.84375 -1.203125 56.0625 L -5.765625 56.0625 L -5.765625 55.734375 C -5.765625 55.679688 -5.738281 55.65625 -5.6875 55.65625 L -11.53125 4.8125 L -16.65625 55.65625 Z M -16.8125 55.578125 "/></g></g></g></svg>